<svg xmlns="http://www.w3.org/2000/svg" viewBox="0 0 443.95 329.16"><defs><style>.cls-1{fill:#3f6f7a;}.cls-2{fill:#cdecf6;}.cls-3{fill:#ecf1f4;}.cls-4{fill:#20386d;}.cls-27,.cls-28,.cls-29,.cls-30,.cls-32,.cls-34,.cls-5,.cls-6,.cls-7,.cls-8{fill:none;}.cls-11,.cls-16,.cls-17,.cls-20,.cls-23,.cls-27,.cls-30,.cls-32,.cls-34,.cls-5,.cls-6,.cls-7{stroke:#fff;}.cls-11,.cls-16,.cls-17,.cls-20,.cls-23,.cls-27,.cls-28,.cls-29,.cls-30,.cls-32,.cls-34,.cls-5,.cls-6,.cls-7{stroke-miterlimit:10;}.cls-6{stroke-dasharray:11.79 11.79;}.cls-7{stroke-dasharray:10.76 10.76;}.cls-9{fill:#f79450;}.cls-10{fill:#c15527;}.cls-11{fill:#ffcf80;}.cls-12{fill:#9b95c9;}.cls-13{fill:#eb3939;}.cls-14{fill:#5f5eaa;}.cls-15{fill:#961b1e;}.cls-16{fill:#d5cce5;}.cls-17{fill:#f16267;}.cls-18{fill:#ef5180;}.cls-19{fill:#a02854;}.cls-20{fill:#f59ab6;}.cls-21{fill:#82b7e3;}.cls-22{fill:#25629d;}.cls-23{fill:#9fc8ea;}.cls-24{fill:#a02754;}.cls-25{fill:#fff;}.cls-26{fill:#d8d9da;}.cls-27,.cls-28,.cls-30,.cls-32,.cls-34{stroke-width:2px;}.cls-27{stroke-dasharray:2 2;}.cls-28,.cls-29{stroke:#bcbec0;}.cls-28,.cls-30{stroke-dasharray:7 5;}.cls-29{stroke-width:2.25px;stroke-dasharray:5 5;}.cls-31{fill:#d5d7d8;}.cls-32{stroke-dasharray:3 4;}.cls-33{fill:#e0e1e2;}.cls-34{stroke-dasharray:5 3;}.cls-35{fill:#4f5339;}.cls-36{fill:#2b8f44;}</style></defs><g id="Layer_4" data-name="Layer 4"><path class="cls-1" d="M137.34,592.94l208-118.18a9.62,9.62,0,0,1,9.4-.08L571.44,593a9.56,9.56,0,0,1,.1,16.75l-212.2,119a9.69,9.69,0,0,1-9.45,0L137.39,609.61A9.56,9.56,0,0,1,137.34,592.94Z" transform="translate(-132.49 -400.87)"/></g><g id="Layer_5" data-name="Layer 5"><path class="cls-2" d="M137.34,582.61l208-118.73a9.62,9.62,0,0,1,9.4-.08L571.44,582.7a9.63,9.63,0,0,1,.1,16.83L359.34,719.1a9.64,9.64,0,0,1-9.45,0L137.39,599.36A9.63,9.63,0,0,1,137.34,582.61Z" transform="translate(-132.49 -400.87)"/></g><g id="chodnik"><polygon class="cls-3" points="86.41 228.59 147.71 265.08 223.57 220.35 303.18 260.8 362.51 227.02 277.48 184.24 347.27 146.07 285.78 112.97 86.41 228.59"/><polygon class="cls-3" points="99.84 139.54 86.41 147.17 162.84 193.49 177.91 184.74 99.84 139.54"/></g><g id="Layer_6" data-name="Layer 6"><polygon class="cls-4" points="95.42 234.38 138.69 259.46 221.97 210.34 312.31 255.6 355.27 231.88 261.49 184.9 337.52 140.84 295.7 118.23 95.42 234.38"/></g><g id="pasy"><line class="cls-5" x1="124.73" y1="242.36" x2="129.86" y2="239.24"/><line class="cls-6" x1="139.92" y1="233.1" x2="295.91" y2="138.02"/><line class="cls-5" x1="300.94" y1="134.96" x2="306.07" y2="131.83"/><line class="cls-5" x1="246.51" y1="197.91" x2="251.83" y2="200.67"/><line class="cls-7" x1="261.39" y1="205.63" x2="313.93" y2="232.92"/><line class="cls-5" x1="318.7" y1="235.4" x2="324.03" y2="238.16"/><path class="cls-8" d="M614.27,493.55" transform="translate(-132.49 -400.87)"/><path class="cls-8" d="M432.94,604.08" transform="translate(-132.49 -400.87)"/></g><g id="Layer_10" data-name="Layer 10"><polygon class="cls-9" points="306.06 154.64 306.06 175.13 334.19 189.57 334.19 168.28 306.06 154.64"/><polygon class="cls-10" points="334.19 168.28 367.48 149.58 367.48 170.09 334.19 189.9 334.19 168.28"/><polygon class="cls-11" points="305.11 154.64 334.19 168.28 367.48 148.87 338.15 134.5 305.11 154.64"/></g><g id="Layer_9" data-name="Layer 9"><polygon class="cls-12" points="26.07 112.97 26.07 180.01 57.18 198.47 57.18 131.83 26.07 112.97"/><polygon class="cls-13" points="358.36 151.78 358.36 196.92 385.32 210.51 385.32 165.65 358.36 151.78"/><polygon class="cls-14" points="57.18 131.83 99.84 107.24 99.84 176.57 57.18 198.47 57.18 131.83"/><polygon class="cls-15" points="385.32 165.65 412.88 151.35 412.88 195.48 385.32 210.51 385.32 165.65"/><polygon class="cls-16" points="26.07 112.97 57.18 131.83 99.84 107.24 69.18 89.02 26.07 112.97"/><polygon class="cls-17" points="358.36 151.78 385.32 165.65 412.88 151.35 385.62 136.39 358.36 151.78"/><polygon class="cls-18" points="199.84 18.81 200.94 96.52 230.95 114.32 230.95 35.54 199.84 18.81"/><polygon class="cls-19" points="230.95 35.54 258.86 18.81 258.86 100.29 230.95 114.32 230.95 35.54"/><polygon class="cls-20" points="199.84 18.81 230.95 35.54 258.86 18.81 228.2 0.59 199.84 18.81"/><polygon class="cls-21" points="215.31 232.11 215.31 275.91 238.78 288.55 238.78 244.48 215.31 232.11"/><polygon class="cls-22" points="238.78 244.48 277.95 224.12 278.38 267.41 238.78 288.55 238.78 244.48"/><polygon class="cls-23" points="215.31 232.11 238.78 244.48 277.95 224.12 254.32 211.59 215.31 232.11"/><polygon class="cls-18" points="80.05 183.36 80.05 199.71 98.36 210.32 98.36 194.23 80.05 183.36"/><polygon class="cls-24" points="98.36 194.23 124.73 178.71 124.73 195.38 98.36 210.32 98.36 194.23"/><polygon class="cls-20" points="80.05 183.36 98.36 194.23 124.73 178.91 106.59 167.63 80.05 183.36"/><polygon class="cls-25" points="307.84 159.02 307.84 164.24 331.62 176.24 331.62 170.74 307.84 159.02"/><polygon class="cls-25" points="307.84 167.17 307.84 172.41 331.62 184.41 331.62 178.89 307.84 167.17"/><polygon class="cls-26" points="98.36 198.47 98.36 205.75 111.99 198.19 111.99 191.37 98.36 198.47"/><polygon class="cls-25" points="87.25 192.79 87.25 199.46 98.36 205.88 98.36 198.47 87.25 192.79"/><polygon class="cls-26" points="114.82 189.56 114.82 196.84 117.97 194.92 117.97 187.89 114.82 189.56"/><polyline class="cls-26" points="119.6 194.13 122.75 192.36 122.75 185.19 119.6 186.85"/><line class="cls-27" x1="218.73" y1="273.31" x2="218.73" y2="238.46"/><line class="cls-27" x1="223.4" y1="276.07" x2="223.4" y2="241.58"/><line class="cls-27" x1="228.62" y1="278.85" x2="228.62" y2="244.37"/><line class="cls-27" x1="233.18" y1="281.76" x2="233.18" y2="247.28"/><polygon class="cls-25" points="30.46 121.04 30.46 128.14 40.02 134.42 40.02 127.25 30.46 121.04"/><polygon class="cls-25" points="42.69 128.38 42.69 135.48 52.24 141.76 52.38 134.42 42.69 128.38"/><polygon class="cls-25" points="30.73 130.82 30.73 137.92 40.28 144.2 40.28 137.03 30.73 130.82"/><polygon class="cls-25" points="42.95 138.17 42.95 145.27 52.51 151.55 52.65 144.2 42.95 138.17"/><polygon class="cls-25" points="30.73 140.26 30.73 147.36 40.28 153.64 40.28 146.47 30.73 140.26"/><polygon class="cls-25" points="42.95 147.6 42.95 154.7 52.51 160.98 52.65 153.64 42.95 147.6"/><polygon class="cls-25" points="30.6 149.59 30.6 156.69 40.15 162.97 40.15 155.8 30.6 149.59"/><polygon class="cls-25" points="42.82 156.93 42.82 164.03 52.37 170.31 52.51 162.97 42.82 156.93"/><polygon class="cls-25" points="30.86 159.38 30.86 166.47 40.42 172.75 40.42 165.59 30.86 159.38"/><polygon class="cls-25" points="43.08 166.72 43.08 173.82 52.64 180.1 52.78 172.75 43.08 166.72"/><polygon class="cls-25" points="30.86 168.81 30.86 175.91 40.42 182.19 40.42 175.02 30.86 168.81"/><polygon class="cls-25" points="43.08 176.15 43.08 183.25 52.64 189.53 52.78 182.19 43.08 176.15"/><polygon class="cls-25" points="241.01 247.82 241.01 253.65 248.95 249.38 248.95 243.76 241.01 247.82"/><polygon class="cls-25" points="250.25 243.1 250.25 248.93 258.19 244.65 258.19 239.04 250.25 243.1"/><polygon class="cls-25" points="259.48 238.38 259.48 244.22 267.43 239.94 267.43 234.33 259.48 238.38"/><polygon class="cls-25" points="268.54 233.95 268.54 239.78 276.48 235.5 276.48 229.89 268.54 233.95"/><polygon class="cls-25" points="241.18 255.77 241.18 261.61 249.12 257.33 249.12 251.72 241.18 255.77"/><polygon class="cls-25" points="250.41 251.05 250.41 256.88 258.36 252.61 258.36 247 250.41 251.05"/><polygon class="cls-25" points="259.65 246.34 259.65 252.17 267.6 247.9 267.6 242.28 259.65 246.34"/><polygon class="cls-25" points="268.71 241.9 268.71 247.74 276.65 243.46 276.65 237.85 268.71 241.9"/><polygon class="cls-25" points="241.33 267.88 241.33 273.72 249.27 269.44 249.27 263.83 241.33 267.88"/><polygon class="cls-25" points="250.56 263.16 250.56 269 258.51 264.72 258.51 259.11 250.56 263.16"/><polygon class="cls-25" points="259.8 258.45 259.8 264.28 267.75 260.01 267.75 254.4 259.8 258.45"/><polygon class="cls-25" points="268.86 254.01 268.86 259.85 276.8 255.57 276.8 249.96 268.86 254.01"/><polygon class="cls-25" points="241.33 275.93 241.33 281.76 249.27 277.48 249.27 271.87 241.33 275.93"/><polygon class="cls-25" points="250.56 271.2 250.56 277.04 258.51 272.76 258.51 267.15 250.56 271.2"/><polygon class="cls-25" points="259.8 266.49 259.8 272.32 267.75 268.05 267.75 262.44 259.8 266.49"/><polygon class="cls-25" points="268.86 262.05 268.86 267.89 276.8 263.61 276.8 258 268.86 262.05"/></g><g id="Layer_11" data-name="Layer 11"><line class="cls-28" x1="237.18" y1="38.98" x2="237.15" y2="105.05"/><line class="cls-28" x1="243.1" y1="35.54" x2="243.08" y2="101.61"/><line class="cls-28" x1="248.89" y1="32.2" x2="248.86" y2="98.28"/><line class="cls-28" x1="254.67" y1="29.98" x2="254.65" y2="96.05"/><line class="cls-29" x1="64.73" y1="134.42" x2="65.38" y2="189.46"/><line class="cls-29" x1="69.69" y1="131.61" x2="70.33" y2="186.66"/><line class="cls-29" x1="74.53" y1="128.9" x2="75.17" y2="183.94"/><line class="cls-29" x1="79.73" y1="125.33" x2="80.37" y2="180.38"/><line class="cls-29" x1="84.78" y1="122.97" x2="85.43" y2="178.01"/><line class="cls-29" x1="89.89" y1="119.39" x2="90.54" y2="174.43"/><line class="cls-29" x1="94.77" y1="116.46" x2="95.42" y2="171.5"/><line class="cls-30" x1="225.64" y1="38.98" x2="225.61" y2="105.05"/><line class="cls-30" x1="219.19" y1="35.54" x2="219.16" y2="101.61"/><line class="cls-30" x1="212.75" y1="32.2" x2="212.72" y2="98.28"/><line class="cls-30" x1="206.56" y1="28.71" x2="206.53" y2="94.78"/><polygon class="cls-28" points="162.29 145.31 162.29 149.35 169.69 145.02 169.69 141.61 162.29 145.31"/><line class="cls-29" x1="389.5" y1="169.57" x2="389.92" y2="207.73"/><line class="cls-29" x1="394.45" y1="166.76" x2="394.87" y2="204.92"/><line class="cls-29" x1="399.29" y1="164.04" x2="399.71" y2="202.2"/><line class="cls-29" x1="404.49" y1="160.48" x2="404.91" y2="198.64"/><line class="cls-29" x1="409.55" y1="158.11" x2="409.97" y2="196.28"/><path class="cls-29" d="M547.8,610.44" transform="translate(-132.49 -400.87)"/><path class="cls-29" d="M547.15,555.4" transform="translate(-132.49 -400.87)"/></g><g id="Layer_12" data-name="Layer 12"><polygon class="cls-21" points="147.48 77.94 148.58 123.07 170.86 137.36 170.86 93.29 147.48 77.94"/><polygon class="cls-22" points="170.86 93.29 210.01 70.84 210.01 115.57 170.86 137.36 170.86 93.29"/><polygon class="cls-23" points="147.48 77.94 170.86 93.29 210.01 70.84 187.52 54.74 147.48 77.94"/><polygon class="cls-31" points="173.82 96.05 173.82 103.13 208.06 84.02 208.06 76.6 173.82 96.05"/><polygon class="cls-31" points="173.82 107.8 173.82 114.87 208.06 95.76 208.06 88.34 173.82 107.8"/><polygon class="cls-31" points="173.82 119.82 173.82 126.89 208.06 107.78 208.06 100.36 173.82 119.82"/><line class="cls-32" x1="151.7" y1="86.92" x2="151.68" y2="120.91"/><line class="cls-32" x1="156.16" y1="90.02" x2="156.15" y2="123.94"/><line class="cls-32" x1="156.16" y1="90.02" x2="156.15" y2="123.94"/><line class="cls-32" x1="160.85" y1="93.46" x2="160.84" y2="127.39"/><line class="cls-32" x1="165.85" y1="96.67" x2="165.84" y2="130.59"/></g><g id="Layer_13" data-name="Layer 13"><polygon class="cls-9" points="137.7 130.35 137.7 151.91 161.08 165.27 161.08 143.98 137.7 130.35"/><polygon class="cls-10" points="161.08 143.65 178.97 133.42 178.97 155.09 161.08 165.27 161.08 143.65"/><polygon class="cls-11" points="137.7 130.35 161.08 143.98 178.97 133.42 155.76 119.39 137.7 130.35"/><polygon class="cls-33" points="170.5 141.82 170.5 145.25 177.91 141 177.91 137.36 170.5 141.82"/><polygon class="cls-33" points="170.5 147.52 170.5 150.98 177.91 146.74 177.91 143.06 170.5 147.52"/><polygon class="cls-33" points="170.5 153.43 170.5 156.74 177.91 152.49 177.91 148.97 170.5 153.43"/><line class="cls-34" x1="140.58" y1="135.96" x2="140.58" y2="150.62"/><line class="cls-34" x1="144.22" y1="138.52" x2="144.21" y2="153.19"/><line class="cls-34" x1="148.4" y1="140.61" x2="148.39" y2="155.27"/><line class="cls-34" x1="152.07" y1="143.12" x2="152.06" y2="157.79"/><line class="cls-34" x1="156.15" y1="145.52" x2="156.14" y2="160.19"/><path class="cls-34" d="M254.33,586.06" transform="translate(-132.49 -400.87)"/></g><g id="Layer_14" data-name="Layer 14"><rect class="cls-35" x="200.31" y="147.18" width="1.22" height="10.78"/><circle class="cls-36" cx="200.92" cy="141.81" r="7.15"/><polygon class="cls-35" points="201.36 153.4 201.27 151.13 203.4 146.15 204.58 145.12 201.36 153.4"/><polygon class="cls-35" points="197.41 147.16 200.63 151.75 200.6 150.34 198.52 147.46 197.41 147.16"/><rect class="cls-35" x="214.69" y="138.24" width="1.22" height="10.78"/><circle class="cls-36" cx="215.31" cy="132.86" r="7.15"/><polygon class="cls-35" points="215.75 144.45 215.66 142.18 217.79 137.2 218.97 136.17 215.75 144.45"/><polygon class="cls-35" points="211.8 138.21 215.02 142.81 214.99 141.39 212.91 138.51 211.8 138.21"/><rect class="cls-35" x="229.06" y="129.77" width="1.22" height="10.78"/><circle class="cls-36" cx="229.67" cy="124.39" r="7.15"/><polygon class="cls-35" points="230.12 135.99 230.03 133.71 232.16 128.74 233.34 127.7 230.12 135.99"/><polygon class="cls-35" points="226.17 129.74 229.38 134.34 229.36 132.93 227.28 130.05 226.17 129.74"/><rect class="cls-35" x="244.3" y="120.53" width="1.22" height="10.78"/><circle class="cls-36" cx="244.91" cy="115.15" r="7.15"/><polygon class="cls-35" points="245.36 126.74 245.26 124.47 247.39 119.5 248.57 118.46 245.36 126.74"/><polygon class="cls-35" points="241.41 120.5 244.62 125.1 244.6 123.68 242.51 120.81 241.41 120.5"/><rect class="cls-35" x="259.19" y="111.7" width="1.22" height="10.78"/><circle class="cls-36" cx="259.8" cy="106.32" r="7.15"/><polygon class="cls-35" points="260.25 117.91 260.16 115.64 262.28 110.67 263.47 109.63 260.25 117.91"/><polygon class="cls-35" points="256.3 111.67 259.51 116.27 259.49 114.85 257.41 111.97 256.3 111.67"/><rect class="cls-35" x="126.14" y="132.92" width="1.22" height="10.78"/><circle class="cls-36" cx="126.75" cy="127.54" r="7.15"/><polygon class="cls-35" points="127.2 139.13 127.11 136.86 129.23 131.88 130.42 130.85 127.2 139.13"/><polygon class="cls-35" points="123.25 132.89 126.46 137.49 126.44 136.07 124.36 133.19 123.25 132.89"/><rect class="cls-35" x="361.05" y="211.38" width="1.22" height="10.78"/><circle class="cls-36" cx="361.66" cy="206.01" r="7.15"/><polygon class="cls-35" points="362.11 217.6 362.01 215.33 364.14 210.35 365.33 209.31 362.11 217.6"/><polygon class="cls-35" points="358.16 211.36 361.37 215.96 361.35 214.54 359.27 211.66 358.16 211.36"/><rect class="cls-35" x="346.75" y="204.08" width="1.22" height="10.78"/><circle class="cls-36" cx="347.36" cy="198.7" r="7.15"/><polygon class="cls-35" points="347.81 210.29 347.72 208.02 349.85 203.05 351.03 202.01 347.81 210.29"/><polygon class="cls-35" points="343.86 204.05 347.07 208.65 347.05 207.23 344.97 204.36 343.86 204.05"/><rect class="cls-35" x="129.85" y="170.61" width="1.22" height="10.78"/><circle class="cls-36" cx="130.46" cy="165.24" r="7.15"/><polygon class="cls-35" points="130.91 176.83 130.81 174.56 132.94 169.58 134.13 168.54 130.91 176.83"/><polygon class="cls-35" points="126.96 170.58 130.17 175.18 130.15 173.77 128.07 170.89 126.96 170.58"/><rect class="cls-35" x="141.63" y="179.59" width="1.22" height="10.78"/><circle class="cls-36" cx="142.24" cy="174.21" r="7.15"/><polygon class="cls-35" points="142.69 185.8 142.59 183.53 144.72 178.56 145.91 177.52 142.69 185.8"/><polygon class="cls-35" points="138.74 179.56 141.95 184.16 141.93 182.74 139.85 179.87 138.74 179.56"/><rect class="cls-35" x="331.51" y="197.15" width="1.22" height="10.78"/><circle class="cls-36" cx="332.12" cy="191.77" r="7.15"/><polygon class="cls-35" points="332.57 203.37 332.48 201.09 334.6 196.12 335.79 195.08 332.57 203.37"/><polygon class="cls-35" points="328.62 197.12 331.83 201.72 331.81 200.3 329.73 197.43 328.62 197.12"/><rect class="cls-35" x="170.25" y="249.8" width="1.22" height="10.78"/><circle class="cls-36" cx="170.86" cy="244.43" r="7.15"/><polygon class="cls-35" points="171.3 256.02 171.21 253.75 173.34 248.77 174.52 247.74 171.3 256.02"/><polygon class="cls-35" points="167.35 249.78 170.57 254.38 170.54 252.96 168.46 250.08 167.35 249.78"/><rect class="cls-35" x="185.28" y="243.16" width="1.22" height="10.78"/><circle class="cls-36" cx="185.89" cy="237.78" r="7.15"/><polygon class="cls-35" points="186.34 249.37 186.25 247.1 188.37 242.13 189.56 241.09 186.34 249.37"/><polygon class="cls-35" points="182.39 243.13 185.6 247.73 185.58 246.31 183.5 243.44 182.39 243.13"/><rect class="cls-35" x="200.92" y="234.69" width="1.22" height="10.78"/><circle class="cls-36" cx="201.53" cy="229.31" r="7.15"/><polygon class="cls-35" points="201.97 240.9 201.88 238.63 204.01 233.66 205.19 232.62 201.97 240.9"/><polygon class="cls-35" points="198.03 234.66 201.24 239.26 201.22 237.84 199.13 234.97 198.03 234.66"/><rect class="cls-35" x="201.53" y="274.19" width="1.22" height="10.78"/><circle class="cls-36" cx="202.14" cy="268.81" r="7.15"/><polygon class="cls-35" points="202.59 280.4 202.49 278.13 204.62 273.15 205.81 272.12 202.59 280.4"/><polygon class="cls-35" points="198.64 274.16 201.85 278.76 201.83 277.34 199.75 274.46 198.64 274.16"/><rect class="cls-35" x="218.12" y="285.84" width="1.22" height="10.78"/><circle class="cls-36" cx="218.73" cy="280.46" r="7.15"/><polygon class="cls-35" points="219.18 292.05 219.09 289.78 221.21 284.81 222.4 283.77 219.18 292.05"/><polygon class="cls-35" points="215.23 285.81 218.44 290.41 218.42 288.99 216.34 286.12 215.23 285.81"/><rect class="cls-35" x="71.18" y="203.41" width="1.22" height="10.78"/><circle class="cls-36" cx="71.79" cy="198.04" r="7.15"/><polygon class="cls-35" points="72.24 209.63 72.15 207.35 74.28 202.38 75.46 201.34 72.24 209.63"/><polygon class="cls-35" points="68.29 203.38 71.5 207.98 71.48 206.57 69.4 203.69 68.29 203.38"/><rect class="cls-35" x="293.65" y="176.87" width="1.22" height="10.78"/><circle class="cls-36" cx="294.26" cy="171.5" r="7.15"/><polygon class="cls-35" points="294.71 183.09 294.61 180.82 296.74 175.84 297.93 174.81 294.71 183.09"/><polygon class="cls-35" points="290.76 176.85 293.97 181.44 293.95 180.03 291.87 177.15 290.76 176.85"/></g></svg>